<?xml version="1.0" encoding="UTF-8" standalone="no"?>
<!-- Created with Inkscape (http://www.inkscape.org/) -->

<svg
   version="1.1"
   id="svg2"
   width="742.28003"
   height="157.39999"
   viewBox="0 0 742.28003 157.39999"
   sodipodi:docname="15_Biligual_WhiteColour_Horizontal_2024.eps"
   xmlns:inkscape="http://www.inkscape.org/namespaces/inkscape"
   xmlns:sodipodi="http://sodipodi.sourceforge.net/DTD/sodipodi-0.dtd"
   xmlns="http://www.w3.org/2000/svg"
   xmlns:svg="http://www.w3.org/2000/svg">
  <defs
     id="defs6" />
  <sodipodi:namedview
     id="namedview4"
     pagecolor="#ffffff"
     bordercolor="#000000"
     borderopacity="0.25"
     inkscape:showpageshadow="2"
     inkscape:pageopacity="0.0"
     inkscape:pagecheckerboard="0"
     inkscape:deskcolor="#d1d1d1" />
  <g
     id="g8"
     inkscape:groupmode="layer"
     inkscape:label="ink_ext_XXXXXX"
     transform="matrix(1.3333333,0,0,-1.3333333,0,157.4)">
    <g
       id="g10"
       transform="scale(0.1)">
      <path
         d="M 593.801,309.809 327.078,1010.11 h 132.594 v 87.66 H 0 v -87.66 H 132.859 L 480.531,99.5391 522.988,0 616.98,252.094 593.801,309.809"
         style="fill:#ffffff;fill-opacity:1;fill-rule:nonzero;stroke:none"
         id="path12" />
      <path
         d="m 942.676,1180.46 -255,-111.58 -45.781,-106.825 202.824,84.065 -135.602,-334.573 -1.324,-3.168 45.098,-112.899 168.082,420.17 88.187,-200.869 45.09,105.293 -111.574,260.386"
         style="fill:#ffffff;fill-opacity:1;fill-rule:nonzero;stroke:none"
         id="path14" />
      <path
         d="m 1496.47,832.203 -100.44,264.027 h 49.32 l 79.16,-218.246 78.62,218.246 h 48.48 L 1551.12,832.203 h -54.65"
         style="fill:#ffffff;fill-opacity:1;fill-rule:nonzero;stroke:none"
         id="path16" />
      <path
         d="M 1859.63,872.207 V 832.18 h -164.02 v 264.03 h 161.32 v -39.98 H 1740.5 v -71.125 h 107.98 V 945.977 H 1740.5 v -73.77 h 119.13"
         style="fill:#ffffff;fill-opacity:1;fill-rule:nonzero;stroke:none"
         id="path18" />
      <path
         d="m 2115.62,1032.22 c -18.22,17.32 -43.56,27.57 -72.87,27.57 -52.02,0 -89.35,-38.23 -89.35,-95.579 0,-58.246 39.08,-95.578 90.67,-95.578 29.78,0 53.81,8.926 74.67,27.14 v -48.472 c -23.08,-13.785 -48.9,-19.539 -75.99,-19.539 -81.38,0 -136.03,55.972 -136.03,136.449 0,80.899 57.35,136.449 136.03,136.449 27.09,0 51.54,-5.76 72.87,-18.64 v -49.8"
         style="fill:#ffffff;fill-opacity:1;fill-rule:nonzero;stroke:none"
         id="path20" />
      <path
         d="m 2280.53,832.203 h -45.36 v 224.057 h -83.54 v 39.97 h 212.01 v -39.97 h -83.11 V 832.203"
         style="fill:#ffffff;fill-opacity:1;fill-rule:nonzero;stroke:none"
         id="path22" />
      <path
         d="m 2533.46,1100.69 c 75.99,0 136.87,-55.55 136.87,-136.456 0,-80.894 -60.88,-136.5 -136.87,-136.5 -76.46,0 -136.92,55.606 -136.92,136.5 0,80.906 60.46,136.456 136.92,136.456 m 0,-40.87 c -50.69,0 -90.24,-37.81 -90.24,-95.586 0,-57.82 39.55,-95.578 90.24,-95.578 50.64,0 90.19,37.758 90.19,95.578 0,57.776 -39.55,95.586 -90.19,95.586"
         style="fill:#ffffff;fill-opacity:1;fill-rule:nonzero;stroke:none"
         id="path24" />
      <path
         d="m 2774.78,832.203 h -45.31 V 1095.8 c 15.95,2.65 44.41,4.86 65.75,4.86 69.38,0 107.14,-30.62 107.14,-86.23 0,-38.649 -21.76,-66.637 -52.44,-78.203 l 79.58,-104.024 h -54.71 l -70.23,93.781 h -29.78 z m 0,131.113 h 22.23 c 36.02,0 59.14,15.579 59.14,49.794 0,30.26 -20.91,48 -60.93,48 -5.28,0 -15.58,-0.42 -20.44,-0.9 v -96.894"
         style="fill:#ffffff;fill-opacity:1;fill-rule:nonzero;stroke:none"
         id="path26" />
      <path
         d="m 1452.67,432.508 h -44.41 v 264.027 h 44.41 V 432.508"
         style="fill:#ffffff;fill-opacity:1;fill-rule:nonzero;stroke:none"
         id="path28" />
      <path
         d="m 1701.39,501.43 v 195.117 h 43.14 V 432.52 h -42.72 L 1568.95,625.891 V 432.52 h -43.09 v 264.027 h 45.31 L 1701.39,501.43"
         style="fill:#ffffff;fill-opacity:1;fill-rule:nonzero;stroke:none"
         id="path30" />
      <path
         d="m 1802.86,493.867 c 20.07,-15.578 40.98,-27.14 68.39,-27.14 25.71,0 47.94,10.242 47.94,36.91 0,24.449 -18.74,33.797 -47.52,42.668 -49.64,16 -72.29,36.011 -72.29,80.472 0,48 37.91,74.246 82.32,74.246 27.88,0 48.8,-8.027 66.22,-20.015 v -45.36 c -20.49,16.899 -40.08,26.668 -64.9,26.668 -24.82,0 -40.08,-13.781 -40.08,-34.218 0,-21.332 14.79,-30.203 47.48,-40.871 50.53,-15.579 72.34,-37.332 72.34,-82.219 0,-52.91 -40.98,-76.938 -91.09,-76.938 -28.3,0 -52.28,8.028 -68.81,19.539 v 46.258"
         style="fill:#ffffff;fill-opacity:1;fill-rule:nonzero;stroke:none"
         id="path32" />
      <path
         d="m 2119.53,432.535 h -44.41 v 224 h -81.9 v 40.028 h 207.74 v -40.028 h -81.43 v -224"
         style="fill:#ffffff;fill-opacity:1;fill-rule:nonzero;stroke:none"
         id="path34" />
      <path
         d="m 2292.91,432.508 h -44.41 v 264.027 h 44.41 V 432.508"
         style="fill:#ffffff;fill-opacity:1;fill-rule:nonzero;stroke:none"
         id="path36" />
      <path
         d="m 2466.68,432.535 h -44.41 v 224 h -81.9 v 40.028 h 207.79 v -40.028 h -81.48 v -224"
         style="fill:#ffffff;fill-opacity:1;fill-rule:nonzero;stroke:none"
         id="path38" />
      <path
         d="m 2590.81,696.563 h 44.41 V 530.75 c 0,-50.641 26.19,-64 64.48,-64 20.06,0 35.75,1.797 50.95,4.438 v 225.375 h 44.47 V 440.086 c -23.98,-6.656 -64.48,-11.988 -95.42,-11.988 -58.78,0 -108.89,21.332 -108.89,94.629 v 173.836"
         style="fill:#ffffff;fill-opacity:1;fill-rule:nonzero;stroke:none"
         id="path40" />
      <path
         d="m 2968.9,432.535 h -44.41 v 224 h -81.9 v 40.028 h 207.74 v -40.028 h -81.43 v -224"
         style="fill:#ffffff;fill-opacity:1;fill-rule:nonzero;stroke:none"
         id="path42" />
      <path
         d="M 3258.54,472.527 V 432.5 H 3097.8 v 264.082 h 158.16 v -40.027 h -114.17 v -71.129 h 105.87 v -39.129 h -105.87 v -73.77 h 116.75"
         style="fill:#ffffff;fill-opacity:1;fill-rule:nonzero;stroke:none"
         id="path44" />
      <path
         d="m 3868.36,836.523 h -44.41 v 264.027 h 44.41 V 836.523"
         style="fill:#ffffff;fill-opacity:1;fill-rule:nonzero;stroke:none"
         id="path46" />
      <path
         d="m 4117.07,905.41 v 195.12 h 43.14 V 836.5 h -42.72 l -132.86,193.38 V 836.5 h -43.09 v 264.03 h 45.26 l 130.27,-195.12"
         style="fill:#ffffff;fill-opacity:1;fill-rule:nonzero;stroke:none"
         id="path48" />
      <path
         d="m 4218.55,897.852 c 20.06,-15.582 40.97,-27.145 68.38,-27.145 25.71,0 47.95,10.246 47.95,36.91 0,24.449 -18.75,33.797 -47.53,42.668 -49.64,16 -72.29,36.012 -72.29,80.475 0,48 37.91,74.24 82.32,74.24 27.89,0 48.8,-8.02 66.22,-20.01 v -45.31 c -20.49,16.85 -40.08,26.62 -64.9,26.62 -24.82,0 -40.08,-13.78 -40.08,-34.22 0,-21.33 14.79,-30.2 47.48,-40.869 50.53,-15.578 72.34,-37.336 72.34,-82.219 0,-52.91 -40.98,-76.937 -91.09,-76.937 -28.3,0 -52.28,8.023 -68.8,19.539 v 46.258"
         style="fill:#ffffff;fill-opacity:1;fill-rule:nonzero;stroke:none"
         id="path50" />
      <path
         d="m 4535.21,836.5 h -44.4 v 224.05 h -81.91 v 39.98 h 207.79 v -39.98 h -81.48 V 836.5"
         style="fill:#ffffff;fill-opacity:1;fill-rule:nonzero;stroke:none"
         id="path52" />
      <path
         d="m 4708.55,836.523 h -44.41 v 264.027 h 44.41 V 836.523"
         style="fill:#ffffff;fill-opacity:1;fill-rule:nonzero;stroke:none"
         id="path54" />
      <path
         d="m 4882.36,836.5 h -44.4 v 224.05 h -81.91 v 39.98 h 207.79 v -39.98 h -81.48 V 836.5"
         style="fill:#ffffff;fill-opacity:1;fill-rule:nonzero;stroke:none"
         id="path56" />
      <path
         d="m 5006.49,1100.54 h 44.41 V 934.734 c 0,-50.64 26.19,-64 64.48,-64 20.06,0 35.75,1.793 51.01,4.434 v 225.372 h 44.41 V 844.066 c -23.98,-6.652 -64.48,-11.988 -95.42,-11.988 -58.78,0 -108.89,21.336 -108.89,94.629 v 173.833"
         style="fill:#ffffff;fill-opacity:1;fill-rule:nonzero;stroke:none"
         id="path58" />
      <path
         d="m 5384.58,836.5 h -44.41 v 224.05 h -81.9 v 39.98 h 207.74 v -39.98 h -81.43 V 836.5"
         style="fill:#ffffff;fill-opacity:1;fill-rule:nonzero;stroke:none"
         id="path60" />
      <path
         d="m 3914.19,436.832 -102.45,264.027 h 50.33 l 80.68,-218.246 80.22,218.246 h 49.42 L 3969.95,436.832 h -55.76"
         style="fill:#ffffff;fill-opacity:1;fill-rule:nonzero;stroke:none"
         id="path62" />
      <path
         d="m 4284.58,476.832 v -40.027 h -167.29 v 264.082 h 164.59 V 660.859 H 4163.07 V 589.73 h 110.15 v -39.128 h -110.15 v -73.77 h 121.51"
         style="fill:#ffffff;fill-opacity:1;fill-rule:nonzero;stroke:none"
         id="path64" />
      <path
         d="m 4545.69,636.859 c -18.59,17.321 -44.41,27.563 -74.35,27.563 -53.02,0 -91.09,-38.231 -91.09,-95.578 0,-58.242 39.87,-95.578 92.46,-95.578 30.37,0 54.87,8.925 76.15,27.144 v -48.476 c -23.55,-13.782 -49.85,-19.539 -77.52,-19.539 -82.95,0 -138.72,55.976 -138.72,136.449 0,80.898 58.51,136.453 138.72,136.453 27.67,0 52.6,-5.758 74.35,-18.645 v -49.793"
         style="fill:#ffffff;fill-opacity:1;fill-rule:nonzero;stroke:none"
         id="path66" />
      <path
         d="m 4713.89,436.832 h -46.26 v 224.055 h -85.17 v 39.972 h 216.24 v -39.972 h -84.81 V 436.832"
         style="fill:#ffffff;fill-opacity:1;fill-rule:nonzero;stroke:none"
         id="path68" />
      <path
         d="m 5015.37,476.832 v -40.027 h -167.29 v 264.082 h 164.6 V 660.859 H 4893.86 V 589.73 h 110.21 v -39.128 h -110.21 v -73.77 h 121.51"
         style="fill:#ffffff;fill-opacity:1;fill-rule:nonzero;stroke:none"
         id="path70" />
      <path
         d="m 5074.32,700.863 h 46.25 V 535.055 c 0,-50.641 27.2,-64 67.07,-64 20.85,0 37.17,1.797 53.06,4.437 v 225.371 h 46.21 V 444.387 c -24.92,-6.653 -67.06,-11.985 -99.27,-11.985 -61.2,0 -113.32,21.332 -113.32,94.68 v 173.781"
         style="fill:#ffffff;fill-opacity:1;fill-rule:nonzero;stroke:none"
         id="path72" />
      <path
         d="m 5409.33,436.832 h -46.26 v 263.606 c 16.37,2.636 45.36,4.859 67.12,4.859 70.71,0 109.25,-30.629 109.25,-86.234 0,-38.653 -22.23,-66.641 -53.49,-78.204 l 81.11,-104.027 h -55.71 l -71.66,93.781 h -30.36 z m 0,131.113 h 22.65 c 36.76,0 60.31,15.578 60.31,49.797 0,30.203 -21.28,48 -62.1,48 -5.44,0 -15.89,-0.422 -20.86,-0.898 v -96.899"
         style="fill:#ffffff;fill-opacity:1;fill-rule:nonzero;stroke:none"
         id="path74" />
      <path
         d="m 3543.45,435.57 h 13.31 v 665.93 h -13.31 V 435.57"
         style="fill:#ffffff;fill-opacity:1;fill-rule:nonzero;stroke:none"
         id="path76" />
      <path
         d="m 613.609,34.1602 h 2.196 c 3.14,0 5.175,1.1015 5.175,4.0703 0,2.8281 -2.199,4.0781 -5.023,4.0781 -0.473,0 -1.723,0 -2.348,-0.1484 z m 0,-15.0586 h -6.898 v 28.5468 c 2.348,0.4727 6.117,0.9414 9.094,0.9414 7.062,0 12.39,-3.289 12.39,-10.3593 0,-3.9219 -2.195,-7.0586 -5.172,-8.4688 l 7.692,-10.6601 h -8.012 l -6.273,9.0898 h -2.821 z m 26.672,13.957 c 0,13.6523 -9.566,24.3125 -23.379,24.3125 -13.656,0 -23.222,-10.6602 -23.222,-24.3125 0,-13.3398 9.566,-24.16016 23.222,-24.16016 13.813,0 23.379,10.82036 23.379,24.16016 z m -52.718,0 c 0,16.7812 12.39,29.8125 29.339,29.8125 17.094,0 29.496,-13.0313 29.496,-29.8125 0,-16.6289 -12.402,-29.64844 -29.496,-29.64844 -16.949,0 -29.339,13.01954 -29.339,29.64844"
         style="fill:#ffffff;fill-opacity:1;fill-rule:nonzero;stroke:none"
         id="path78" />
    </g>
  </g>
</svg>
